<?xml version="1.0" encoding="utf-8"?>
<!-- Generator: Adobe Illustrator 27.2.0, SVG Export Plug-In . SVG Version: 6.00 Build 0)  -->
<svg version="1.1" id="HSN_x2F_TSN" xmlns="http://www.w3.org/2000/svg" xmlns:xlink="http://www.w3.org/1999/xlink" x="0px"
	 y="0px" viewBox="0 0 338 172" style="enable-background:new 0 0 338 172;" xml:space="preserve">
<path id="HSN_x2F_TSN_00000070797559789562971120000011747782203760292276_" d="M66.02,150.26h-15.6V50.83
	c-3.76,3.58-8.68,7.17-14.78,10.75c-6.1,3.58-11.57,6.27-16.43,8.06V54.56c8.73-4.1,16.35-9.07,22.89-14.91
	c6.53-5.84,11.15-11.5,13.87-16.99h10.06V150.26z M187.99,135.27v15h-84c-0.12-3.76,0.49-7.37,1.82-10.84
	c2.14-5.72,5.56-11.36,10.27-16.9c4.71-5.55,11.51-11.96,20.42-19.24c13.81-11.33,23.15-20.3,28-26.92
	c4.85-6.62,7.28-12.87,7.28-18.77c0-6.18-2.21-11.4-6.63-15.65c-4.42-4.25-10.19-6.37-17.29-6.37c-7.51,0-13.52,2.25-18.03,6.76
	c-4.51,4.51-6.79,10.75-6.85,18.72l-16.04-1.65c1.1-11.96,5.23-21.08,12.4-27.35c7.17-6.27,16.79-9.41,28.87-9.41
	c12.19,0,21.85,3.38,28.95,10.14c7.11,6.76,10.66,15.14,10.66,25.14c0,5.09-1.04,10.09-3.12,15c-2.08,4.91-5.53,10.09-10.36,15.52
	c-4.83,5.43-12.84,12.89-24.06,22.37c-9.36,7.86-15.37,13.19-18.03,15.99c-2.66,2.8-4.85,5.62-6.59,8.45H187.99z M326,0H12
	C5.4,0,0,5.4,0,12v148c0,6.6,5.4,12,12,12h314c6.6,0,12-5.4,12-12V12C338,5.4,332.6,0,326,0z M328,150c0,6.6-5.4,12-12,12H22
	c-6.6,0-12-5.4-12-12V22c0-6.6,5.4-12,12-12h294c6.6,0,12,5.4,12,12V150z"/>
</svg>
